700 0 1 0           
30 Autodesk Translation Framework 20 ASM 222.0.0.3200 OSX 24 Wed May 25 22:12:13 2016 
1 9.999999999999999547e-07 1.000000000000000036e-10 
body $1 -1 $-1 $2 $-1 $3 #
rgb_color-st-attrib $-1 -1 $4 $-1 $0 0.627450980392156854 0.627450980392156854 0.627450980392156854 #
lump $-1 -1 $-1 $-1 $5 $0 #
transform $-1 -1 1 0 0 0 1 0 0 0 1 0 0 0 1 no_rotate no_reflect no_shear #
DXID-attrib $-1 -1 $-1 $1 $0 @10 ASM ENTITY @226 {"label":"Body2","asset":"b02fc821-5687-4a87-9a15-9502dc8bffc1","segment":"0","entity":"413","revision":"a78519f2-172a-451d-bd1d-437ccd1fe352","meta":"D3937028-C20C-4E65-B010-94AD418A5C20","metaName":"BodyMetaType","extra":""} #
shell $6 -1 $-1 $-1 $-1 $7 $-1 $2 #
string_attrib-name_attrib-gen-attrib $-1 -1 $-1 $-1 $5 keep keep_kept ignore copy @17 ATF_ExternalShell @4 true #
face $-1 -1 $-1 $8 $9 $5 $-1 $10 reversed single #
face $-1 -1 $-1 $11 $12 $5 $-1 $13 forward single #
loop $-1 -1 $-1 $14 $15 $7 #
cone-surface $-1 -1 $-1 2.500000074505805969 25 2.500000074505805969 0 -1 0 -1.264499999999999957 0 0 1 I I 0 1 1.500000000000000222 forward I I I I #
face $-1 -1 $-1 $16 $17 $5 $-1 $18 reversed single #
loop $-1 -1 $-1 $-1 $19 $8 #
plane-surface $-1 -1 $-1 2.500000074505805969 17 2.500000074505805969 0 1 0 -10 0 0 forward_v I I I I #
loop $-1 -1 $-1 $-1 $20 $7 #
coedge $-1 -1 $-1 $15 $15 $19 $21 forward $9 $-1 #
face $-1 -1 $-1 $22 $23 $5 $-1 $24 forward single #
loop $-1 -1 $-1 $25 $26 $11 #
cone-surface $-1 -1 $-1 2.500000037252902985 25 47.50000067055225372 0 -1 0 -1.264499999999999957 0 0 1 I I 0 1 1.500000000000000222 forward I I I I #
coedge $-1 -1 $-1 $19 $19 $15 $21 reversed $12 $-1 #
coedge $-1 -1 $-1 $20 $20 $27 $28 reversed $14 $-1 #
edge $-1 -1 $-1 $29 -3.141592653589793116 $29 3.141592653589793116 $15 $30 forward @7 unknown #
face $-1 -1 $-1 $31 $32 $5 $-1 $33 reversed single #
loop $-1 -1 $-1 $-1 $34 $16 #
plane-surface $-1 -1 $-1 2.500000037252902985 17 47.50000067055225372 0 1 0 -10 0 0 forward_v I I I I #
loop $-1 -1 $-1 $-1 $35 $11 #
coedge $-1 -1 $-1 $26 $26 $34 $36 forward $17 $-1 #
coedge $-1 -1 $-1 $27 $27 $20 $28 forward $37 $-1 #
edge $-1 -1 $-1 $38 -3.141592653589793116 $38 3.141592653589793116 $27 $39 forward @7 unknown #
vertex $-1 -1 $-1 $21 $40 #
ellipse-curve $-1 -1 $-1 2.500000074505805969 17 2.500000074505805969 -0 -1 -0 -1.264499999999999957 0 0 1 I I #
face $-1 -1 $-1 $41 $42 $5 $-1 $43 forward single #
loop $-1 -1 $-1 $44 $45 $22 #
cone-surface $-1 -1 $-1 57.50000000000000711 25 2.500000037252902985 0 -1 0 -1.264499999999999957 0 0 1 I I 0 1 1.500000000000003553 forward I I I I #
coedge $-1 -1 $-1 $34 $34 $26 $36 reversed $23 $-1 #
coedge $-1 -1 $-1 $35 $35 $46 $47 reversed $25 $-1 #
edge $-1 -1 $-1 $48 -3.141592653589793116 $48 3.141592653589793116 $26 $49 forward @7 unknown #
loop $-1 -1 $-1 $50 $27 $51 #
vertex $-1 -1 $-1 $28 $52 #
ellipse-curve $-1 -1 $-1 2.500000074505805969 25 2.500000074505805969 -0 -1 -0 -1.264499999999999957 0 0 1 I I #
point $-1 -1 $-1 3.764500074505805927 17 2.500000074505805969 #
face $-1 -1 $-1 $53 $54 $5 $-1 $55 reversed single #
loop $-1 -1 $-1 $-1 $56 $31 #
plane-surface $-1 -1 $-1 57.50000000000000711 17 2.500000037252902985 0 1 0 -10 0 0 forward_v I I I I #
loop $-1 -1 $-1 $-1 $57 $22 #
coedge $-1 -1 $-1 $45 $45 $56 $58 forward $32 $-1 #
coedge $-1 -1 $-1 $46 $46 $35 $47 forward $50 $-1 #
edge $-1 -1 $-1 $59 -3.141592653589793116 $59 3.141592653589793116 $46 $60 forward @7 unknown #
vertex $-1 -1 $-1 $36 $61 #
ellipse-curve $-1 -1 $-1 2.500000037252902985 17 47.50000067055225372 -0 -1 -0 -1.264499999999999957 0 0 1 I I #
loop $-1 -1 $-1 $62 $46 $51 #
face $-1 -1 $-1 $63 $37 $5 $-1 $64 forward single #
point $-1 -1 $-1 3.764500074505805927 25 2.500000074505805969 #
face $-1 -1 $-1 $65 $66 $5 $-1 $67 forward single #
loop $-1 -1 $-1 $68 $69 $41 #
cone-surface $-1 -1 $-1 57.5 25 47.5 0 -1 0 -1.264499999999999957 0 0 1 I I 0 1 1.500000000000003553 forward I I I I #
coedge $-1 -1 $-1 $56 $56 $45 $58 reversed $42 $-1 #
coedge $-1 -1 $-1 $57 $57 $70 $71 reversed $44 $-1 #
edge $-1 -1 $-1 $72 -3.141592653589793116 $72 3.141592653589793116 $45 $73 forward @7 unknown #
vertex $-1 -1 $-1 $47 $74 #
ellipse-curve $-1 -1 $-1 2.500000037252902985 25 47.50000067055225372 -0 -1 -0 -1.264499999999999957 0 0 1 I I #
point $-1 -1 $-1 3.764500037252902942 17 47.50000067055225372 #
loop $-1 -1 $-1 $75 $70 $51 #
face $-1 -1 $-1 $-1 $76 $5 $-1 $77 forward single #
plane-surface $-1 -1 $-1 0 25 50 0 1 0 0 0 -10 forward_v I I I I #
face $-1 -1 $-1 $78 $79 $5 $-1 $80 forward single #
loop $-1 -1 $-1 $-1 $81 $53 #
plane-surface $-1 -1 $-1 57.5 17 47.5 0 1 0 -10 0 0 forward_v I I I I #
loop $-1 -1 $-1 $-1 $82 $41 #
coedge $-1 -1 $-1 $69 $69 $81 $83 forward $54 $-1 #
coedge $-1 -1 $-1 $70 $70 $57 $71 forward $62 $-1 #
edge $-1 -1 $-1 $84 -3.141592653589793116 $84 3.141592653589793116 $70 $85 forward @7 unknown #
vertex $-1 -1 $-1 $58 $86 #
ellipse-curve $-1 -1 $-1 57.50000000000000711 17 2.500000037252902985 -0 -1 -0 -1.264499999999999957 0 0 1 I I #
point $-1 -1 $-1 3.764500037252902942 25 47.50000067055225372 #
loop $-1 -1 $-1 $87 $88 $51 #
loop $-1 -1 $-1 $89 $90 $63 #
plane-surface $-1 -1 $-1 -3.000000000000000444 12.5 25 -1 0 0 0 0 10 forward_v I I I I #
face $-1 -1 $-1 $91 $92 $5 $-1 $93 reversed single #
loop $-1 -1 $-1 $-1 $94 $65 #
cone-surface $-1 -1 $-1 43.00000000000000711 10.5 45.50000000000000711 1 0 0 0 3.18198051533946602 3.181980515339462467 1 I I 0 -1 4.500000000000000888 forward I I I I #
coedge $-1 -1 $-1 $81 $81 $69 $83 reversed $66 $-1 #
coedge $-1 -1 $-1 $82 $82 $88 $95 reversed $68 $-1 #
edge $-1 -1 $-1 $96 -3.141592653589793116 $96 3.141592653589793116 $69 $97 forward @7 unknown #
vertex $-1 -1 $-1 $71 $98 #
ellipse-curve $-1 -1 $-1 57.50000000000000711 25 2.500000037252902985 -0 -1 -0 -1.264499999999999957 0 0 1 I I #
point $-1 -1 $-1 58.76450000000001239 17 2.500000037252902985 #
loop $-1 -1 $-1 $99 $100 $51 #
coedge $-1 -1 $-1 $88 $88 $82 $95 forward $75 $-1 #
loop $-1 -1 $-1 $-1 $101 $63 #
coedge $-1 -1 $-1 $102 $103 $104 $105 forward $76 $-1 #
face $-1 -1 $-1 $106 $107 $5 $-1 $108 forward single #
loop $-1 -1 $-1 $-1 $109 $78 #
plane-surface $-1 -1 $-1 28.50000000000000711 12.5 50 0 0 1 10 0 0 forward_v I I I I #
coedge $-1 -1 $-1 $110 $111 $112 $113 reversed $79 $-1 #
edge $-1 -1 $-1 $114 -3.141592653589793116 $114 3.141592653589793116 $88 $115 forward @7 unknown #
vertex $-1 -1 $-1 $83 $116 #
ellipse-curve $-1 -1 $-1 57.5 17 47.5 -0 -1 -0 -1.264499999999999957 0 0 1 I I #
point $-1 -1 $-1 58.76450000000001239 25 2.500000037252902985 #
loop $-1 -1 $-1 $-1 $117 $51 #
coedge $-1 -1 $-1 $118 $119 $101 $120 forward $87 $-1 #
coedge $-1 -1 $-1 $121 $122 $100 $120 reversed $89 $-1 #
coedge $-1 -1 $-1 $123 $90 $124 $125 forward $76 $-1 #
coedge $-1 -1 $-1 $90 $123 $126 $127 forward $76 $-1 #
coedge $-1 -1 $-1 $128 $129 $90 $105 reversed $130 $-1 #
edge $-1 -1 $-1 $131 -1.650000000000000355 $132 -0 $104 $133 forward @7 unknown #
face $-1 -1 $-1 $134 $135 $5 $-1 $136 reversed single #
loop $-1 -1 $-1 $-1 $137 $91 #
cone-surface $-1 -1 $-1 43.00000000000000711 10.5 4.5 -1 -0 -0 0 3.181980515339462912 -3.181980515339465576 1 I I 0 -1 4.500000000000000888 forward I I I I #
coedge $-1 -1 $-1 $138 $139 $140 $141 forward $92 $-1 #
coedge $-1 -1 $-1 $142 $94 $138 $143 forward $79 $-1 #
coedge $-1 -1 $-1 $94 $142 $144 $145 forward $79 $-1 #
coedge $-1 -1 $-1 $146 $147 $94 $113 forward $135 $-1 #
edge $-1 -1 $-1 $148 -0.7853981633974488341 $149 0.7853981633974477239 $112 $150 forward @7 unknown #
vertex $-1 -1 $-1 $95 $151 #
ellipse-curve $-1 -1 $-1 57.5 25 47.5 -0 -1 -0 -1.264499999999999957 0 0 1 I I #
point $-1 -1 $-1 58.76449999999999818 17 47.5 #
coedge $-1 -1 $-1 $152 $153 $154 $155 forward $99 $-1 #
coedge $-1 -1 $-1 $156 $100 $157 $158 forward $87 $-1 #
coedge $-1 -1 $-1 $100 $156 $159 $160 reversed $87 $-1 #
edge $-1 -1 $-1 $161 -5.299999999999999822 $162 0.2999999999999998224 $100 $163 forward @7 unknown #
coedge $-1 -1 $-1 $164 $101 $165 $166 forward $89 $-1 #
coedge $-1 -1 $-1 $101 $164 $167 $168 reversed $89 $-1 #
coedge $-1 -1 $-1 $103 $102 $169 $170 forward $76 $-1 #
coedge $-1 -1 $-1 $171 $172 $102 $125 reversed $173 $-1 #
edge $-1 -1 $-1 $132 -1.450000000000000178 $174 -0 $124 $175 forward @7 unknown #
coedge $-1 -1 $-1 $176 $177 $103 $127 reversed $178 $-1 #
edge $-1 -1 $-1 $179 -1.450000000000000178 $131 -0 $126 $180 forward @7 unknown #
coedge $-1 -1 $-1 $181 $104 $177 $182 reversed $130 $-1 #
coedge $-1 -1 $-1 $104 $181 $171 $183 forward $130 $-1 #
loop $-1 -1 $-1 $-1 $181 $184 #
vertex $-1 -1 $-1 $182 $185 #
vertex $-1 -1 $-1 $125 $186 #
straight-curve $-1 -1 $-1 -3.000000000000000444 5.25 16.75 -0 -0 -10 I I #
face $-1 -1 $-1 $187 $188 $5 $-1 $189 reversed single #
loop $-1 -1 $-1 $190 $112 $106 #
plane-surface $-1 -1 $-1 60.00000000000000711 12.5 25 1 0 0 0 0 -10 forward_v I I I I #
coedge $-1 -1 $-1 $191 $192 $193 $194 reversed $107 $-1 #
coedge $-1 -1 $-1 $195 $109 $110 $143 reversed $92 $-1 #
coedge $-1 -1 $-1 $109 $196 $197 $198 forward $92 $-1 #
coedge $-1 -1 $-1 $199 $200 $109 $141 reversed $201 $-1 #
edge $-1 -1 $-1 $202 -0.625 $203 0.8249999999999999556 $109 $204 forward @7 unknown #
coedge $-1 -1 $-1 $111 $110 $200 $205 forward $79 $-1 #
edge $-1 -1 $-1 $148 -1.700000000000000178 $203 -1.199999999999999289 $138 $206 forward @7 tangent #
coedge $-1 -1 $-1 $207 $208 $111 $145 reversed $209 $-1 #
edge $-1 -1 $-1 $210 1.199999999999999289 $149 1.700000000000000178 $144 $211 forward @7 tangent #
coedge $-1 -1 $-1 $212 $112 $208 $213 forward $135 $-1 #
coedge $-1 -1 $-1 $112 $214 $195 $215 reversed $135 $-1 #
vertex $-1 -1 $-1 $113 $216 #
vertex $-1 -1 $-1 $113 $217 #
ellipse-curve $-1 -1 $-1 60.00000000000000711 10.5 45.50000000000000711 -1 -0 -0 0 3.18198051533946602 3.181980515339462467 1 I I #
point $-1 -1 $-1 58.76449999999999818 25 47.5 #
coedge $-1 -1 $-1 $218 $117 $219 $220 forward $99 $-1 #
coedge $-1 -1 $-1 $117 $221 $222 $223 reversed $99 $-1 #
coedge $-1 -1 $-1 $224 $225 $117 $155 reversed $226 $-1 #
edge $-1 -1 $-1 $227 0 $228 0.5 $117 $229 forward @7 unknown #
coedge $-1 -1 $-1 $119 $118 $230 $231 reversed $87 $-1 #
coedge $-1 -1 $-1 $167 $232 $118 $158 reversed $233 $-1 #
edge $-1 -1 $-1 $162 -6.300000000000000711 $234 0.2999999999999998224 $118 $235 forward @7 unknown #
coedge $-1 -1 $-1 $236 $165 $119 $160 forward $237 $-1 #
edge $-1 -1 $-1 $161 -6.300000000000000711 $238 0.2999999999999998224 $159 $239 forward @7 unknown #
vertex $-1 -1 $-1 $166 $240 #
vertex $-1 -1 $-1 $168 $241 #
straight-curve $-1 -1 $-1 -3.000000000000000444 25 50 0 0 10 I I #
coedge $-1 -1 $-1 $122 $121 $242 $243 reversed $89 $-1 #
coedge $-1 -1 $-1 $159 $244 $121 $166 reversed $237 $-1 #
edge $-1 -1 $-1 $161 -2.5 $245 0.3000000000000000444 $121 $246 forward @7 unknown #
coedge $-1 -1 $-1 $247 $157 $122 $168 forward $233 $-1 #
edge $-1 -1 $-1 $162 -2.5 $248 0.3000000000000000444 $122 $249 forward @7 unknown #
coedge $-1 -1 $-1 $250 $251 $123 $170 reversed $252 $-1 #
edge $-1 -1 $-1 $174 -1.650000000000000355 $179 -0 $169 $253 forward @7 unknown #
coedge $-1 -1 $-1 $254 $124 $129 $183 reversed $173 $-1 #
coedge $-1 -1 $-1 $124 $254 $250 $255 forward $173 $-1 #
loop $-1 -1 $-1 $-1 $254 $256 #
vertex $-1 -1 $-1 $170 $257 #
straight-curve $-1 -1 $-1 -3.000000000000000444 19.75 16.75 0 10 0 I I #
coedge $-1 -1 $-1 $258 $126 $251 $259 reversed $178 $-1 #
coedge $-1 -1 $-1 $126 $258 $128 $182 forward $178 $-1 #
loop $-1 -1 $-1 $-1 $258 $260 #
vertex $-1 -1 $-1 $127 $261 #
straight-curve $-1 -1 $-1 -3.000000000000000444 5.25 33.25 -0 -10 -0 I I #
coedge $-1 -1 $-1 $129 $128 $262 $263 reversed $130 $-1 #
edge $-1 -1 $-1 $264 0 $131 0.3000000000000000444 $128 $265 forward @7 unknown #
edge $-1 -1 $-1 $266 0 $132 0.3000000000000000444 $129 $267 forward @7 unknown #
face $-1 -1 $-1 $51 $130 $5 $-1 $268 forward single #
point $-1 -1 $-1 -3.000000000000000444 5.25 33.25 #
point $-1 -1 $-1 -3.000000000000000444 5.25 16.75 #
face $-1 -1 $-1 $269 $270 $5 $-1 $271 forward single #
loop $-1 -1 $-1 $-1 $272 $134 #
plane-surface $-1 -1 $-1 28.50000000000000711 12.5 0 0 0 -1 -10 0 0 forward_v I I I I #
loop $-1 -1 $-1 $-1 $273 $106 #
coedge $-1 -1 $-1 $274 $137 $275 $276 forward $107 $-1 #
coedge $-1 -1 $-1 $137 $274 $272 $277 forward $107 $-1 #
coedge $-1 -1 $-1 $278 $279 $137 $194 forward $135 $-1 #
edge $-1 -1 $-1 $280 -0.7853981633974487231 $281 0.7853981633974479459 $193 $282 forward @7 unknown #
coedge $-1 -1 $-1 $283 $138 $147 $215 forward $92 $-1 #
coedge $-1 -1 $-1 $139 $284 $285 $286 forward $92 $-1 #
coedge $-1 -1 $-1 $287 $288 $139 $198 reversed $99 $-1 #
edge $-1 -1 $-1 $289 0.8000000074505806413 $202 5.799999999999999822 $197 $290 forward @7 unknown #
coedge $-1 -1 $-1 $291 $140 $288 $292 forward $201 $-1 #
coedge $-1 -1 $-1 $140 $293 $142 $205 reversed $201 $-1 #
loop $-1 -1 $-1 $-1 $199 $294 #
vertex $-1 -1 $-1 $141 $295 #
vertex $-1 -1 $-1 $143 $296 #
straight-curve $-1 -1 $-1 55 18.75 50 0 -10 0 I I #
edge $-1 -1 $-1 $203 -0.7853981633974488341 $210 0.7853981633974477239 $142 $297 forward @7 unknown #
straight-curve $-1 -1 $-1 43.00000000000000711 10.5 50 -10 -0 -0 F -3.095001000000000779 F 4.795001000000000957 #
coedge $-1 -1 $-1 $298 $144 $293 $299 forward $209 $-1 #
coedge $-1 -1 $-1 $144 $298 $146 $213 reversed $209 $-1 #
loop $-1 -1 $-1 $-1 $144 $300 #
vertex $-1 -1 $-1 $205 $301 #
straight-curve $-1 -1 $-1 43.00000000000000711 15 45.50000000000000711 10 0 0 F -4.795001000000000957 F 3.095001000000000779 #
coedge $-1 -1 $-1 $302 $146 $303 $304 forward $135 $-1 #
edge $-1 -1 $-1 $149 -0.9250000000000007105 $305 -0.875 $146 $306 forward @7 unknown #
coedge $-1 -1 $-1 $147 $278 $307 $308 reversed $135 $-1 #
edge $-1 -1 $-1 $148 1.449999999999999956 $309 2.5 $195 $310 forward @7 unknown #
point $-1 -1 $-1 60.00000000000000711 10.5 50 #
point $-1 -1 $-1 60.00000000000000711 15 45.50000000000000711 #
coedge $-1 -1 $-1 $311 $152 $302 $312 reversed $99 $-1 #
coedge $-1 -1 $-1 $313 $314 $152 $220 reversed $315 $-1 #
edge $-1 -1 $-1 $228 0 $316 0.5 $152 $317 forward @7 unknown #
coedge $-1 -1 $-1 $153 $318 $319 $320 reversed $99 $-1 #
coedge $-1 -1 $-1 $321 $322 $153 $223 forward $188 $-1 #
edge $-1 -1 $-1 $227 0.5 $323 5.499999992549420291 $153 $324 forward @7 unknown #
coedge $-1 -1 $-1 $325 $154 $322 $326 reversed $226 $-1 #
coedge $-1 -1 $-1 $154 $327 $313 $328 reversed $226 $-1 #
loop $-1 -1 $-1 $-1 $154 $329 #
vertex $-1 -1 $-1 $326 $330 #
vertex $-1 -1 $-1 $155 $331 #
straight-curve $-1 -1 $-1 55.00000000000000711 25 -2.157041537713704155e-31 0 0 10 F 0 F 0.5 #
coedge $-1 -1 $-1 $332 $333 $156 $231 forward $334 $-1 #
edge $-1 -1 $-1 $238 -5.599999999999999645 $234 -0 $156 $335 forward @7 unknown #
coedge $-1 -1 $-1 $157 $247 $332 $336 reversed $233 $-1 #
loop $-1 -1 $-1 $-1 $167 $337 #
vertex $-1 -1 $-1 $336 $338 #
straight-curve $-1 -1 $-1 60.00000000000000711 25 53 10 0 0 I I #
coedge $-1 -1 $-1 $244 $159 $333 $339 forward $237 $-1 #
loop $-1 -1 $-1 $-1 $236 $340 #
vertex $-1 -1 $-1 $339 $341 #
straight-curve $-1 -1 $-1 60.00000000000000711 25 -2.999999999999998224 10 0 0 I I #
point $-1 -1 $-1 -2.999999999999998224 25 -3.000000000000000444 #
point $-1 -1 $-1 -2.999999999999998224 25 53 #
coedge $-1 -1 $-1 $342 $343 $164 $243 forward $344 $-1 #
edge $-1 -1 $-1 $248 0 $245 5.599999999999999645 $164 $345 forward @7 unknown #
coedge $-1 -1 $-1 $165 $236 $342 $346 reversed $237 $-1 #
vertex $-1 -1 $-1 $346 $347 #
straight-curve $-1 -1 $-1 -3.000000000000000444 0 -2.999999999999998224 0 -10 0 I I #
coedge $-1 -1 $-1 $232 $167 $343 $348 reversed $233 $-1 #
vertex $-1 -1 $-1 $168 $349 #
straight-curve $-1 -1 $-1 -3.000000000000000444 0 53 -0 -10 -0 I I #
coedge $-1 -1 $-1 $350 $169 $172 $255 reversed $252 $-1 #
coedge $-1 -1 $-1 $169 $350 $176 $259 forward $252 $-1 #
loop $-1 -1 $-1 $-1 $350 $351 #
straight-curve $-1 -1 $-1 -3.000000000000000444 19.75 33.25 0 0 10 I I #
coedge $-1 -1 $-1 $172 $171 $352 $353 reversed $173 $-1 #
edge $-1 -1 $-1 $354 0 $174 0.3000000000000000444 $172 $355 forward @7 unknown #
face $-1 -1 $-1 $184 $173 $5 $-1 $356 forward single #
point $-1 -1 $-1 -3.000000000000000444 19.75 16.75 #
coedge $-1 -1 $-1 $177 $176 $357 $358 reversed $178 $-1 #
edge $-1 -1 $-1 $359 0 $179 0.3000000000000000444 $251 $360 forward @7 unknown #
face $-1 -1 $-1 $351 $178 $5 $-1 $361 forward single #
point $-1 -1 $-1 -3.000000000000000444 19.75 33.25 #
coedge $-1 -1 $-1 $357 $352 $181 $263 forward $362 $-1 #
edge $-1 -1 $-1 $266 0 $264 1.650000000000000355 $262 $363 forward @7 unknown #
vertex $-1 -1 $-1 $263 $364 #
straight-curve $-1 -1 $-1 0 5.25 33.25 -10 0 0 I I #
vertex $-1 -1 $-1 $263 $365 #
straight-curve $-1 -1 $-1 0 5.25 16.75 -10 0 0 I I #
plane-surface $-1 -1 $-1 0 5.25 33.25 0 1 0 -0 -0 -10 forward_v I I I I #
face $-1 -1 $-1 $366 $367 $5 $-1 $368 forward single #
loop $-1 -1 $-1 $-1 $369 $187 #
cone-surface $-1 -1 $-1 15.50000001862645505 10.5 4.5 -1 -0 -0 0 3.181980515339462912 -3.181980515339465576 1 I I 0 -1 4.500000000000000888 forward I I I I #
coedge $-1 -1 $-1 $322 $370 $192 $277 reversed $188 $-1 #
coedge $-1 -1 $-1 $371 $372 $373 $374 forward $190 $-1 #
coedge $-1 -1 $-1 $192 $191 $325 $375 forward $107 $-1 #
coedge $-1 -1 $-1 $376 $377 $191 $276 reversed $378 $-1 #
edge $-1 -1 $-1 $280 -1.700000000000000178 $379 -1.200000000000000178 $275 $380 forward @7 tangent #
edge $-1 -1 $-1 $381 1.200000000000000178 $281 1.700000000000000178 $272 $382 forward @7 tangent #
coedge $-1 -1 $-1 $214 $193 $370 $383 forward $135 $-1 #
coedge $-1 -1 $-1 $193 $384 $376 $385 forward $135 $-1 #
vertex $-1 -1 $-1 $194 $386 #
vertex $-1 -1 $-1 $194 $387 #
ellipse-curve $-1 -1 $-1 60.00000000000000711 10.5 4.5 -1 -0 -0 0 3.181980515339462912 -3.181980515339465576 1 I I #
coedge $-1 -1 $-1 $388 $195 $389 $390 reversed $92 $-1 #
coedge $-1 -1 $-1 $196 $388 $391 $392 reversed $92 $-1 #
coedge $-1 -1 $-1 $393 $394 $196 $286 reversed $395 $-1 #
edge $-1 -1 $-1 $396 -0.8249999999999999556 $289 0.625 $196 $397 forward @7 unknown #
coedge $-1 -1 $-1 $398 $197 $394 $399 forward $99 $-1 #
coedge $-1 -1 $-1 $197 $311 $199 $292 reversed $99 $-1 #
vertex $-1 -1 $-1 $286 $400 #
straight-curve $-1 -1 $-1 -3.000000000000000444 25 50 10 0 0 F 0 F 6.300000000000000711 #
coedge $-1 -1 $-1 $293 $199 $401 $402 forward $201 $-1 #
edge $-1 -1 $-1 $202 0 $403 0.5 $288 $404 forward @7 unknown #
coedge $-1 -1 $-1 $200 $291 $207 $299 reversed $201 $-1 #
face $-1 -1 $-1 $405 $201 $5 $-1 $406 forward single #
point $-1 -1 $-1 55 25 50 #
point $-1 -1 $-1 55 10.5 50 #
ellipse-curve $-1 -1 $-1 55 10.5 45.50000000000000711 -1 -0 -0 0 3.18198051533946602 3.181980515339462467 1 I I #
coedge $-1 -1 $-1 $208 $207 $407 $408 forward $209 $-1 #
edge $-1 -1 $-1 $210 0.4499999999999992895 $409 0.5 $293 $410 forward @7 unknown #
face $-1 -1 $-1 $411 $209 $5 $-1 $412 forward single #
point $-1 -1 $-1 55 15 45.50000000000000711 #
coedge $-1 -1 $-1 $384 $212 $218 $312 forward $135 $-1 #
coedge $-1 -1 $-1 $407 $413 $212 $304 reversed $414 $-1 #
edge $-1 -1 $-1 $305 -0.375 $415 0.625 $212 $416 forward @7 unknown #
vertex $-1 -1 $-1 $213 $417 #
straight-curve $-1 -1 $-1 60.00000000000000711 15 36.25 0 0 -10 I I #
coedge $-1 -1 $-1 $418 $389 $214 $308 forward $419 $-1 #
edge $-1 -1 $-1 $309 -2.5 $420 2.5 $307 $421 forward @7 unknown #
vertex $-1 -1 $-1 $215 $422 #
straight-curve $-1 -1 $-1 60.00000000000000711 25 50 0 -10 0 F 0 F 2.5 #
coedge $-1 -1 $-1 $288 $218 $413 $423 reversed $99 $-1 #
edge $-1 -1 $-1 $415 0.7999999999999998224 $316 4.799999999999999822 $218 $424 forward @7 unknown #
coedge $-1 -1 $-1 $425 $219 $225 $328 forward $315 $-1 #
coedge $-1 -1 $-1 $219 $425 $384 $426 reversed $315 $-1 #
loop $-1 -1 $-1 $-1 $219 $427 #
vertex $-1 -1 $-1 $312 $428 #
straight-curve $-1 -1 $-1 55.00000000000000711 25 5 10 0 0 F 0 F 0.5 #
coedge $-1 -1 $-1 $221 $429 $430 $431 reversed $99 $-1 #
coedge $-1 -1 $-1 $432 $433 $221 $320 forward $434 $-1 #
edge $-1 -1 $-1 $323 0 $435 0.5000000074505805969 $221 $436 forward @7 unknown #
coedge $-1 -1 $-1 $437 $222 $433 $438 forward $188 $-1 #
coedge $-1 -1 $-1 $222 $272 $224 $326 forward $188 $-1 #
vertex $-1 -1 $-1 $223 $439 #
straight-curve $-1 -1 $-1 60.00000000000000711 25 0 -10 0 0 F 0 F 6.300000000000000711 #
coedge $-1 -1 $-1 $327 $224 $274 $375 reversed $226 $-1 #
edge $-1 -1 $-1 $381 -0.8249999999999999556 $227 0.625 $322 $440 forward @7 unknown #
coedge $-1 -1 $-1 $225 $325 $377 $441 reversed $226 $-1 #
edge $-1 -1 $-1 $228 0 $442 1 $313 $443 forward @7 unknown #
face $-1 -1 $-1 $427 $226 $5 $-1 $444 forward single #
point $-1 -1 $-1 55.00000000000000711 25 -2.157041537713704155e-31 #
point $-1 -1 $-1 55.00000000000000711 25 5 #
coedge $-1 -1 $-1 $445 $230 $232 $336 forward $334 $-1 #
coedge $-1 -1 $-1 $230 $445 $236 $339 reversed $334 $-1 #
loop $-1 -1 $-1 $-1 $332 $446 #
straight-curve $-1 -1 $-1 63.00000000000000711 25 53 0 0 10 I I #
edge $-1 -1 $-1 $234 -2.5 $447 0.3000000000000000444 $332 $448 forward @7 unknown #
face $-1 -1 $-1 $446 $233 $5 $-1 $449 forward single #
point $-1 -1 $-1 63.00000000000000711 25 53 #
edge $-1 -1 $-1 $238 -2.5 $450 0.3000000000000000444 $236 $451 forward @7 unknown #
face $-1 -1 $-1 $452 $237 $5 $-1 $453 forward single #
point $-1 -1 $-1 63.00000000000000711 25 -2.999999999999998224 #
coedge $-1 -1 $-1 $454 $242 $244 $346 forward $344 $-1 #
coedge $-1 -1 $-1 $242 $454 $247 $348 forward $344 $-1 #
loop $-1 -1 $-1 $-1 $242 $452 #
straight-curve $-1 -1 $-1 -3.000000000000000444 -3.000000000000000444 53 0 0 -10 I I #
edge $-1 -1 $-1 $245 0 $450 6.600000000000000533 $244 $455 forward @7 unknown #
point $-1 -1 $-1 -3.000000000000000444 -3.000000000000000444 -2.999999999999998224 #
edge $-1 -1 $-1 $447 0 $248 6.600000000000000533 $247 $456 forward @7 unknown #
point $-1 -1 $-1 -3.000000000000000444 -3.000000000000000444 53 #
coedge $-1 -1 $-1 $251 $250 $457 $458 reversed $252 $-1 #
face $-1 -1 $-1 $256 $252 $5 $-1 $459 forward single #
coedge $-1 -1 $-1 $262 $457 $254 $353 forward $362 $-1 #
edge $-1 -1 $-1 $354 0 $266 1.450000000000000178 $352 $460 forward @7 unknown #
vertex $-1 -1 $-1 $458 $461 #
straight-curve $-1 -1 $-1 0 19.75 16.75 -10 0 0 I I #
plane-surface $-1 -1 $-1 0 5.249999999999999112 16.75 0 0 1 0 10 0 forward_v I I I I #
coedge $-1 -1 $-1 $457 $262 $258 $358 forward $362 $-1 #
edge $-1 -1 $-1 $264 0 $359 1.450000000000000178 $357 $462 forward @7 unknown #
vertex $-1 -1 $-1 $358 $463 #
straight-curve $-1 -1 $-1 0 19.75 33.25 -10 0 0 I I #
plane-surface $-1 -1 $-1 0 19.75 33.25 0 0 -1 -0 -10 -0 forward_v I I I I #
loop $-1 -1 $-1 $-1 $262 $366 #
straight-curve $-1 -1 $-1 0 5.25 16.75 0 0 10 F 0 F 1.650000000000000355 #
point $-1 -1 $-1 0 5.25 33.25 #
point $-1 -1 $-1 0 5.25 16.75 #
face $-1 -1 $-1 $294 $464 $5 $-1 $465 forward single #
loop $-1 -1 $-1 $-1 $466 $269 #
cone-surface $-1 -1 $-1 15.50000001862645505 10.5 45.50000000000000711 1 0 0 0 3.18198051533946602 3.181980515339462467 1 I I 0 -1 4.500000000000000888 forward I I I I #
coedge $-1 -1 $-1 $467 $468 $469 $470 reversed $270 $-1 #
coedge $-1 -1 $-1 $272 $471 $278 $383 reversed $188 $-1 #
coedge $-1 -1 $-1 $472 $273 $473 $474 reversed $190 $-1 #
coedge $-1 -1 $-1 $273 $475 $476 $477 forward $190 $-1 #
coedge $-1 -1 $-1 $478 $479 $273 $374 reversed $480 $-1 #
edge $-1 -1 $-1 $481 -1.724999999999999867 $482 -1.324999999999999956 $273 $483 forward @7 unknown #
edge $-1 -1 $-1 $379 -0.7853981633974487231 $381 0.7853981633974479459 $274 $484 forward @7 unknown #
coedge $-1 -1 $-1 $485 $275 $279 $385 reversed $378 $-1 #
coedge $-1 -1 $-1 $275 $485 $327 $441 forward $378 $-1 #
loop $-1 -1 $-1 $-1 $275 $486 #
vertex $-1 -1 $-1 $276 $487 #
straight-curve $-1 -1 $-1 43.00000000000000711 15 4.5 -10 0 0 F -3.095001000000000779 F 4.795001000000000957 #
vertex $-1 -1 $-1 $375 $488 #
straight-curve $-1 -1 $-1 43.00000000000000711 10.5 0 10 0 0 F -4.795001000000000957 F 3.095001000000000779 #
edge $-1 -1 $-1 $281 0.1999999999999999556 $420 1.25 $278 $489 forward @7 unknown #
coedge $-1 -1 $-1 $279 $302 $314 $426 forward $135 $-1 #
edge $-1 -1 $-1 $490 0.875 $280 0.9250000000000000444 $279 $491 forward @7 unknown #
point $-1 -1 $-1 60.00000000000000711 15 4.5 #
point $-1 -1 $-1 60.00000000000000711 10.5 0 #
coedge $-1 -1 $-1 $284 $283 $492 $493 forward $92 $-1 #
coedge $-1 -1 $-1 $307 $494 $283 $390 forward $419 $-1 #
edge $-1 -1 $-1 $495 -2.925000000000000711 $309 3.075000000000000178 $389 $496 forward @7 unknown #
coedge $-1 -1 $-1 $466 $497 $284 $392 forward $367 $-1 #
edge $-1 -1 $-1 $396 1.049999994412064819 $498 1.550000001862645416 $284 $499 forward @7 tangent #
coedge $-1 -1 $-1 $500 $285 $497 $501 reversed $395 $-1 #
coedge $-1 -1 $-1 $285 $502 $287 $399 reversed $395 $-1 #
loop $-1 -1 $-1 $-1 $394 $503 #
vertex $-1 -1 $-1 $392 $504 #
straight-curve $-1 -1 $-1 5.000000074505805969 18.75 50 0 10 0 I I #
coedge $-1 -1 $-1 $429 $287 $505 $506 forward $99 $-1 #
edge $-1 -1 $-1 $289 0 $507 0.4999999329447746277 $287 $508 forward @7 unknown #
point $-1 -1 $-1 5.000000074505805969 25 50 #
coedge $-1 -1 $-1 $413 $407 $291 $402 reversed $414 $-1 #
edge $-1 -1 $-1 $403 0 $409 1 $401 $509 forward @7 unknown #
vertex $-1 -1 $-1 $292 $510 #
straight-curve $-1 -1 $-1 55 25 50 0 0 -10 F 0 F 0.5 #
face $-1 -1 $-1 $300 $414 $5 $-1 $511 forward single #
plane-surface $-1 -1 $-1 55 25 50 -1 -0 -0 0 0 -10 forward_v I I I I #
coedge $-1 -1 $-1 $401 $303 $298 $408 reversed $414 $-1 #
edge $-1 -1 $-1 $409 0 $305 0.5000000000000008882 $407 $512 forward @7 unknown #
vertex $-1 -1 $-1 $402 $513 #
straight-curve $-1 -1 $-1 55 15 50 0 0 -10 I I #
face $-1 -1 $-1 $514 $434 $5 $-1 $515 forward single #
plane-surface $-1 -1 $-1 57.5 15 47.5 0 -1 0 0 0 -10 forward_v I I I I #
coedge $-1 -1 $-1 $303 $401 $311 $423 forward $414 $-1 #
loop $-1 -1 $-1 $-1 $413 $405 #
vertex $-1 -1 $-1 $304 $516 #
straight-curve $-1 -1 $-1 60.00000000000000711 18.75 45 0 10 0 I I #
point $-1 -1 $-1 60.00000000000000711 15 45 #
coedge $-1 -1 $-1 $494 $307 $471 $517 forward $419 $-1 #
loop $-1 -1 $-1 $-1 $418 $518 #
vertex $-1 -1 $-1 $383 $519 #
straight-curve $-1 -1 $-1 60.00000000000000711 0 25 0 0 -10 I I #
point $-1 -1 $-1 60.00000000000000711 0 50 #
edge $-1 -1 $-1 $403 0 $415 0.5000000000000008882 $311 $520 forward @7 unknown #
straight-curve $-1 -1 $-1 60.00000000000000711 25 53 0 0 -10 F 0 F 5.599999999999999645 #
coedge $-1 -1 $-1 $314 $313 $485 $521 reversed $315 $-1 #
edge $-1 -1 $-1 $316 -0.625 $490 0.375 $384 $522 forward @7 unknown #
face $-1 -1 $-1 $486 $315 $5 $-1 $523 forward single #
point $-1 -1 $-1 60.00000000000000711 25 5 #
coedge $-1 -1 $-1 $318 $398 $524 $525 forward $99 $-1 #
coedge $-1 -1 $-1 $526 $527 $318 $431 forward $528 $-1 #
edge $-1 -1 $-1 $435 0 $529 0.5000000074505805969 $318 $530 forward @7 unknown #
coedge $-1 -1 $-1 $531 $319 $527 $532 forward $434 $-1 #
coedge $-1 -1 $-1 $319 $533 $321 $438 reversed $434 $-1 #
loop $-1 -1 $-1 $-1 $319 $411 #
vertex $-1 -1 $-1 $320 $534 #
straight-curve $-1 -1 $-1 5.000000074505805969 25 0 0 0 10 F 0 F 0.5000000074505805969 #
coedge $-1 -1 $-1 $535 $321 $467 $536 reversed $188 $-1 #
edge $-1 -1 $-1 $323 -0.625 $537 0.8249999999999999556 $321 $538 forward @7 unknown #
point $-1 -1 $-1 5.000000074505805969 25 0 #
straight-curve $-1 -1 $-1 55.00000000000000711 18.75 0 0 10 0 I I #
edge $-1 -1 $-1 $442 -0.5 $379 -0.4499999999999999556 $327 $539 forward @7 unknown #
vertex $-1 -1 $-1 $441 $540 #
straight-curve $-1 -1 $-1 55.00000000000000711 25 5 0 -10 0 I I #
plane-surface $-1 -1 $-1 55.00000000000000711 25 5 -1 0 0 -0 -0 -10 forward_v I I I I #
coedge $-1 -1 $-1 $333 $332 $454 $541 reversed $334 $-1 #
face $-1 -1 $-1 $340 $542 $5 $-1 $543 forward single #
vertex $-1 -1 $-1 $348 $544 #
straight-curve $-1 -1 $-1 63.00000000000000711 0 53 0 -10 0 I I #
plane-surface $-1 -1 $-1 63.00000000000000711 0 53 0 0 1 -10 0 0 forward_v I I I I #
vertex $-1 -1 $-1 $541 $545 #
straight-curve $-1 -1 $-1 63.00000000000000711 0 -3.000000000000000444 0 -10 0 I I #
face $-1 -1 $-1 $518 $344 $5 $-1 $546 forward single #
plane-surface $-1 -1 $-1 -3.000000000000000444 0 -3.000000000000000444 0 0 -1 10 0 0 forward_v I I I I #
coedge $-1 -1 $-1 $343 $342 $445 $541 forward $344 $-1 #
straight-curve $-1 -1 $-1 -3.000000000000000444 -3.000000000000000444 -3.000000000000000444 10 0 0 I I #
straight-curve $-1 -1 $-1 63.00000000000000711 -3.000000000000000444 53 -10 0 0 I I #
coedge $-1 -1 $-1 $352 $357 $350 $458 forward $362 $-1 #
edge $-1 -1 $-1 $359 0 $354 1.650000000000000355 $457 $547 forward @7 unknown #
plane-surface $-1 -1 $-1 0 19.75 16.75 -0 -1 -0 0 0 10 forward_v I I I I #
straight-curve $-1 -1 $-1 0 19.75 16.75 0 -10 0 F 0 F 1.450000000000000178 #
point $-1 -1 $-1 0 19.75 16.75 #
straight-curve $-1 -1 $-1 0 5.25 33.25 0 10 0 F 0 F 1.450000000000000178 #
point $-1 -1 $-1 0 19.75 33.25 #
loop $-1 -1 $-1 $362 $469 $366 #
plane-surface $-1 -1 $-1 0 12.5 25 1 0 0 0 0 -10 forward_v I I I I #
coedge $-1 -1 $-1 $548 $391 $549 $550 reversed $367 $-1 #
coedge $-1 -1 $-1 $551 $369 $437 $536 forward $270 $-1 #
coedge $-1 -1 $-1 $369 $551 $552 $553 forward $270 $-1 #
coedge $-1 -1 $-1 $554 $555 $369 $470 forward $464 $-1 #
edge $-1 -1 $-1 $556 -0.7853981633974479459 $557 0.7853981633974487231 $469 $558 forward @7 unknown #
coedge $-1 -1 $-1 $370 $535 $418 $517 reversed $188 $-1 #
coedge $-1 -1 $-1 $559 $371 $560 $561 forward $190 $-1 #
coedge $-1 -1 $-1 $562 $563 $371 $474 forward $564 $-1 #
edge $-1 -1 $-1 $565 0 $482 2.699999999999999734 $473 $566 forward @7 unknown #
coedge $-1 -1 $-1 $372 $567 $568 $569 forward $190 $-1 #
coedge $-1 -1 $-1 $570 $571 $372 $477 reversed $572 $-1 #
edge $-1 -1 $-1 $573 -0.9749999999999999778 $481 -0.625 $372 $574 forward @7 unknown #
coedge $-1 -1 $-1 $575 $373 $571 $576 forward $480 $-1 #
coedge $-1 -1 $-1 $373 $577 $562 $578 reversed $480 $-1 #
loop $-1 -1 $-1 $-1 $579 $580 #
vertex $-1 -1 $-1 $374 $581 #
vertex $-1 -1 $-1 $374 $582 #
straight-curve $-1 -1 $-1 60.00000000000000711 6.75 12.5 0 -10 0 I I #
ellipse-curve $-1 -1 $-1 55.00000000000000711 10.5 4.5 -1 0 0 0 3.181980515339462912 -3.181980515339465576 1 I I #
coedge $-1 -1 $-1 $377 $376 $425 $521 forward $378 $-1 #
face $-1 -1 $-1 $503 $378 $5 $-1 $583 forward single #
point $-1 -1 $-1 55.00000000000000711 15 4.5 #
point $-1 -1 $-1 55.00000000000000711 10.5 0 #
straight-curve $-1 -1 $-1 60.00000000000000711 12.5 0 0 -10 0 I I #
vertex $-1 -1 $-1 $426 $584 #
straight-curve $-1 -1 $-1 60.00000000000000711 15 13.75 0 0 -10 I I #
coedge $-1 -1 $-1 $585 $549 $388 $493 reversed $464 $-1 #
edge $-1 -1 $-1 $495 0 $498 1.050000000000000044 $492 $586 forward @7 unknown #
coedge $-1 -1 $-1 $389 $418 $585 $587 forward $419 $-1 #
vertex $-1 -1 $-1 $390 $588 #
straight-curve $-1 -1 $-1 29.25000000000000711 0 50 10 0 0 I I #
coedge $-1 -1 $-1 $391 $548 $393 $501 forward $367 $-1 #
vertex $-1 -1 $-1 $493 $589 #
straight-curve $-1 -1 $-1 15.50000001862645505 10.5 50 -10 -0 -0 F -4.945000998137356163 F 2.945001001862645573 #
coedge $-1 -1 $-1 $502 $393 $590 $591 reversed $395 $-1 #
edge $-1 -1 $-1 $592 -0.7853981633974477239 $396 0.7853981633974488341 $497 $593 forward @7 unknown #
coedge $-1 -1 $-1 $394 $500 $594 $595 reversed $395 $-1 #
face $-1 -1 $-1 $596 $395 $5 $-1 $597 forward single #
point $-1 -1 $-1 5.000000074505805969 10.5 50 #
coedge $-1 -1 $-1 $594 $598 $398 $506 reversed $599 $-1 #
edge $-1 -1 $-1 $507 0 $600 0.5000000074505805969 $398 $601 forward @7 unknown #
vertex $-1 -1 $-1 $399 $602 #
straight-curve $-1 -1 $-1 5.000000074505805969 25 50 0 0 -10 F 0 F 0.4999999329447746277 #
straight-curve $-1 -1 $-1 55 25 45 0 -10 0 I I #
point $-1 -1 $-1 55 25 45 #
plane-surface $-1 -1 $-1 55 25 45 0 0 -1 10 0 0 forward_v I I I I #
straight-curve $-1 -1 $-1 55 15 45 10 0 0 I I #
point $-1 -1 $-1 55 15 45 #
face $-1 -1 $-1 $603 $528 $5 $-1 $604 forward single #
plane-surface $-1 -1 $-1 5.000000074505805969 25 0 1 0 0 0 0 10 forward_v I I I I #
point $-1 -1 $-1 60.00000000000000711 25 45 #
edge $-1 -1 $-1 $420 -3.075000000000000178 $605 2.925000000000000711 $418 $606 forward @7 unknown #
face $-1 -1 $-1 $260 $419 $5 $-1 $607 reversed single #
point $-1 -1 $-1 60.00000000000000711 0 0 #
straight-curve $-1 -1 $-1 55 25 45 10 0 0 F 0 F 0.5000000000000008882 #
edge $-1 -1 $-1 $490 -0.5 $442 -0 $425 $608 forward @7 unknown #
straight-curve $-1 -1 $-1 60.00000000000000711 18.75 5 0 -10 0 I I #
plane-surface $-1 -1 $-1 60.00000000000000711 25 5 0 0 1 -10 -0 -0 forward_v I I I I #
coedge $-1 -1 $-1 $609 $610 $429 $525 reversed $464 $-1 #
edge $-1 -1 $-1 $600 0.4999999329447746277 $529 4.499999992549419403 $524 $611 forward @7 unknown #
coedge $-1 -1 $-1 $612 $430 $610 $613 reversed $528 $-1 #
coedge $-1 -1 $-1 $430 $612 $432 $532 reversed $528 $-1 #
loop $-1 -1 $-1 $-1 $430 $514 #
vertex $-1 -1 $-1 $613 $614 #
straight-curve $-1 -1 $-1 5.000000074505805969 25 5.000000074505805969 -10 0 0 F 0 F 0.5000000074505805969 #
coedge $-1 -1 $-1 $533 $432 $615 $616 reversed $434 $-1 #
edge $-1 -1 $-1 $435 0 $617 1 $527 $618 forward @7 unknown #
coedge $-1 -1 $-1 $433 $531 $551 $619 reversed $434 $-1 #
point $-1 -1 $-1 5.000000074505805969 25 5.000000074505805969 #
coedge $-1 -1 $-1 $471 $437 $555 $620 forward $188 $-1 #
edge $-1 -1 $-1 $556 -1.550000001862645416 $537 -1.049999994412064819 $437 $621 forward @7 tangent #
vertex $-1 -1 $-1 $438 $622 #
straight-curve $-1 -1 $-1 5.000000074505805969 18.75 0 0 -10 0 I I #
straight-curve $-1 -1 $-1 55.00000000000000711 15 -2.157041537713704155e-31 -0 -0 -10 I I #
point $-1 -1 $-1 55.00000000000000711 15 5 #
edge $-1 -1 $-1 $450 0 $447 5.599999999999999645 $445 $623 forward @7 unknown #
loop $-1 -1 $-1 $334 $624 $446 #
plane-surface $-1 -1 $-1 63.00000000000000711 0 -3.000000000000000444 1 0 0 0 0 10 forward_v I I I I #
point $-1 -1 $-1 63.00000000000000711 -3.000000000000000444 53 #
point $-1 -1 $-1 63.00000000000000711 -3.000000000000000444 -2.999999999999998224 #
plane-surface $-1 -1 $-1 30.00000000000000711 -3.000000000000000444 25 0 -1 0 0 0 -10 forward_v I I I I #
straight-curve $-1 -1 $-1 0 19.75 33.25 0 0 -10 F 0 F 1.650000000000000355 #
coedge $-1 -1 $-1 $497 $466 $625 $626 forward $367 $-1 #
coedge $-1 -1 $-1 $492 $627 $466 $550 forward $464 $-1 #
edge $-1 -1 $-1 $628 -0.7853981633974477239 $498 0.7853981633974488341 $549 $629 forward @7 unknown #
coedge $-1 -1 $-1 $468 $467 $533 $619 forward $270 $-1 #
coedge $-1 -1 $-1 $615 $630 $468 $553 reversed $631 $-1 #
edge $-1 -1 $-1 $632 1.049999994412064819 $557 1.550000001862645416 $552 $633 forward @7 tangent #
coedge $-1 -1 $-1 $610 $469 $630 $634 forward $464 $-1 #
coedge $-1 -1 $-1 $469 $585 $535 $620 reversed $464 $-1 #
vertex $-1 -1 $-1 $536 $635 #
vertex $-1 -1 $-1 $470 $636 #
ellipse-curve $-1 -1 $-1 0 10.5 4.5 1 0 0 0 3.181980515339462912 -3.181980515339465576 1 I I #
coedge $-1 -1 $-1 $637 $472 $638 $639 forward $190 $-1 #
coedge $-1 -1 $-1 $640 $641 $472 $561 reversed $642 $-1 #
edge $-1 -1 $-1 $565 0.1750000000000000444 $643 0.5749999999999999556 $472 $644 forward @7 unknown #
coedge $-1 -1 $-1 $645 $473 $479 $578 forward $564 $-1 #
coedge $-1 -1 $-1 $473 $645 $640 $646 reversed $564 $-1 #
loop $-1 -1 $-1 $-1 $473 $647 #
vertex $-1 -1 $-1 $474 $648 #
straight-curve $-1 -1 $-1 60.00000000000000711 20 39.5 0 0 -10 F 0 F 2.699999999999999734 #
coedge $-1 -1 $-1 $475 $649 $650 $651 forward $190 $-1 #
coedge $-1 -1 $-1 $652 $653 $475 $569 reversed $654 $-1 #
edge $-1 -1 $-1 $655 -1.724999999999999867 $573 0.5749999999999999556 $475 $656 forward @7 unknown #
coedge $-1 -1 $-1 $657 $476 $653 $658 forward $572 $-1 #
coedge $-1 -1 $-1 $476 $657 $478 $576 reversed $572 $-1 #
loop $-1 -1 $-1 $-1 $476 $659 #
vertex $-1 -1 $-1 $569 $660 #
straight-curve $-1 -1 $-1 60.00000000000000711 24 18.75 0 0 10 I I #
coedge $-1 -1 $-1 $661 $478 $662 $663 reversed $480 $-1 #
edge $-1 -1 $-1 $481 0 $664 0.2999999999999998224 $478 $665 forward @7 unknown #
coedge $-1 -1 $-1 $479 $579 $666 $667 reversed $480 $-1 #
edge $-1 -1 $-1 $482 0 $668 0.2999999999999998224 $562 $669 forward @7 unknown #
coedge $-1 -1 $-1 $577 $670 $671 $672 forward $480 $-1 #
face $-1 -1 $-1 $647 $480 $5 $-1 $673 forward single #
point $-1 -1 $-1 60.00000000000000711 24 12.5 #
point $-1 -1 $-1 60.00000000000000711 20 12.5 #
plane-surface $-1 -1 $-1 57.50000000000000711 15 2.5 0 -1 0 0 0 -10 forward_v I I I I #
point $-1 -1 $-1 60.00000000000000711 15 5 #
coedge $-1 -1 $-1 $555 $492 $494 $587 reversed $464 $-1 #
straight-curve $-1 -1 $-1 0 0 50 0 10 0 F 0 F 2.5 #
edge $-1 -1 $-1 $605 0 $495 5 $585 $674 forward @7 unknown #
point $-1 -1 $-1 0 0 50 #
point $-1 -1 $-1 0 10.5 50 #
coedge $-1 -1 $-1 $625 $675 $500 $591 forward $676 $-1 #
edge $-1 -1 $-1 $677 -0.4999999329447746277 $592 -0.4499999999999992895 $500 $678 forward @7 unknown #
vertex $-1 -1 $-1 $626 $679 #
ellipse-curve $-1 -1 $-1 5.000000074505805969 10.5 45.50000000000000711 1 0 0 0 3.18198051533946602 3.181980515339462467 1 I I #
coedge $-1 -1 $-1 $680 $505 $502 $595 forward $599 $-1 #
edge $-1 -1 $-1 $507 0 $677 1 $594 $681 forward @7 unknown #
face $-1 -1 $-1 $682 $599 $5 $-1 $683 forward single #
plane-surface $-1 -1 $-1 5.000000074505805969 25 45.00000067055225372 1 0 0 0 0 10 forward_v I I I I #
coedge $-1 -1 $-1 $505 $680 $609 $684 reversed $599 $-1 #
loop $-1 -1 $-1 $-1 $505 $596 #
vertex $-1 -1 $-1 $525 $685 #
straight-curve $-1 -1 $-1 5.000000074505805969 25 45.00000067055225372 -10 0 0 F 0 F 0.5000000074505805969 #
point $-1 -1 $-1 5.000000074505805969 25 45.00000067055225372 #
face $-1 -1 $-1 $329 $631 $5 $-1 $686 forward single #
plane-surface $-1 -1 $-1 5.000000074505805969 25 5.000000074505805969 0 0 1 -10 0 0 forward_v I I I I #
vertex $-1 -1 $-1 $620 $687 #
straight-curve $-1 -1 $-1 29.25000000000000711 0 0 -10 -0 -0 I I #
plane-surface $-1 -1 $-1 30.00000000000000355 0 25 0 -1 0 10 0 0 forward_v I I I I #
straight-curve $-1 -1 $-1 55.00000000000000711 15 5 -10 -0 -0 I I #
coedge $-1 -1 $-1 $627 $524 $598 $684 forward $464 $-1 #
coedge $-1 -1 $-1 $524 $554 $526 $613 forward $464 $-1 #
straight-curve $-1 -1 $-1 0 25 50 0 0 -10 F 0 F 5 #
coedge $-1 -1 $-1 $527 $526 $688 $689 reversed $528 $-1 #
edge $-1 -1 $-1 $690 -0.375 $529 0.625 $610 $691 forward @7 unknown #
point $-1 -1 $-1 0 25 5.000000074505805969 #
coedge $-1 -1 $-1 $688 $552 $531 $616 forward $631 $-1 #
edge $-1 -1 $-1 $632 0.4499999999999999556 $617 0.5000000074505805969 $531 $692 forward @7 unknown #
vertex $-1 -1 $-1 $532 $693 #
straight-curve $-1 -1 $-1 5.000000074505805969 25 5.000000074505805969 0 -10 0 I I #
edge $-1 -1 $-1 $537 -0.7853981633974479459 $632 0.7853981633974487231 $551 $694 forward @7 unknown #
edge $-1 -1 $-1 $556 1.449999999999999956 $605 2.5 $555 $695 forward @7 unknown #
straight-curve $-1 -1 $-1 15.50000001862645505 10.5 0 10 0 0 F -2.945001001862645573 F 4.945000998137356163 #
point $-1 -1 $-1 5.000000074505805969 10.5 0 #
straight-curve $-1 -1 $-1 63.00000000000000711 -3.000000000000000444 -3.000000000000000444 0 0 10 I I #
coedge $-1 -1 $-1 $696 $666 $697 $698 forward $542 $-1 #
coedge $-1 -1 $-1 $699 $590 $548 $626 reversed $676 $-1 #
edge $-1 -1 $-1 $628 -1.550000001862645416 $592 -1.049999994412064819 $625 $700 forward @7 tangent #
coedge $-1 -1 $-1 $549 $609 $699 $701 forward $464 $-1 #
vertex $-1 -1 $-1 $550 $702 #
ellipse-curve $-1 -1 $-1 0 10.5 45.50000000000000711 1 0 0 0 3.18198051533946602 3.181980515339462467 1 I I #
coedge $-1 -1 $-1 $552 $688 $554 $634 reversed $631 $-1 #
loop $-1 -1 $-1 $-1 $552 $603 #
vertex $-1 -1 $-1 $619 $703 #
straight-curve $-1 -1 $-1 15.50000001862645505 15 4.5 -10 0 0 F -4.945000998137356163 F 2.945001001862645573 #
edge $-1 -1 $-1 $557 -0.9250000018626451936 $690 -0.8749999944120645523 $554 $704 forward @7 unknown #
point $-1 -1 $-1 0 10.5 0 #
point $-1 -1 $-1 0 15 4.5 #
coedge $-1 -1 $-1 $705 $559 $706 $707 forward $190 $-1 #
coedge $-1 -1 $-1 $708 $709 $559 $639 reversed $710 $-1 #
edge $-1 -1 $-1 $643 0.5500000000000002665 $711 0.8999999999999999112 $559 $712 forward @7 unknown #
coedge $-1 -1 $-1 $713 $560 $563 $646 forward $642 $-1 #
coedge $-1 -1 $-1 $560 $714 $708 $715 reversed $642 $-1 #
loop $-1 -1 $-1 $-1 $640 $716 #
vertex $-1 -1 $-1 $561 $717 #
straight-curve $-1 -1 $-1 60.00000000000000711 18.25 39.5 0 10 0 I I #
coedge $-1 -1 $-1 $563 $562 $718 $719 reversed $564 $-1 #
edge $-1 -1 $-1 $565 0 $720 0.2999999999999998224 $640 $721 forward @7 unknown #
face $-1 -1 $-1 $716 $564 $5 $-1 $722 forward single #
point $-1 -1 $-1 60.00000000000000711 20 39.5 #
coedge $-1 -1 $-1 $567 $723 $670 $724 forward $190 $-1 #
coedge $-1 -1 $-1 $725 $726 $567 $651 reversed $727 $-1 #
edge $-1 -1 $-1 $728 0.4499999999999999556 $655 0.7999999999999999334 $567 $729 forward @7 unknown #
coedge $-1 -1 $-1 $730 $568 $726 $731 forward $654 $-1 #
coedge $-1 -1 $-1 $568 $730 $570 $658 reversed $654 $-1 #
loop $-1 -1 $-1 $-1 $568 $732 #
vertex $-1 -1 $-1 $651 $733 #
straight-curve $-1 -1 $-1 60.00000000000000711 18.25 9 0 10 0 I I #
coedge $-1 -1 $-1 $571 $570 $734 $735 reversed $572 $-1 #
edge $-1 -1 $-1 $573 0 $736 0.2999999999999998224 $570 $737 forward @7 unknown #
face $-1 -1 $-1 $738 $572 $5 $-1 $739 forward single #
point $-1 -1 $-1 60.00000000000000711 24 9 #
coedge $-1 -1 $-1 $670 $575 $725 $740 reversed $480 $-1 #
coedge $-1 -1 $-1 $734 $741 $575 $663 forward $742 $-1 #
edge $-1 -1 $-1 $743 -2.299999999999999822 $664 -0 $575 $744 forward @7 unknown #
vertex $-1 -1 $-1 $735 $745 #
straight-curve $-1 -1 $-1 60.00000000000000711 24 12.5 -10 0 0 I I #
coedge $-1 -1 $-1 $624 $718 $577 $667 forward $542 $-1 #
edge $-1 -1 $-1 $668 0 $746 1.5 $577 $747 forward @7 unknown #
vertex $-1 -1 $-1 $667 $748 #
straight-curve $-1 -1 $-1 60.00000000000000711 20 12.5 10 0 0 I I #
coedge $-1 -1 $-1 $579 $661 $649 $724 reversed $480 $-1 #
coedge $-1 -1 $-1 $749 $697 $579 $672 reversed $750 $-1 #
edge $-1 -1 $-1 $751 0 $746 0.2999999999999998224 $671 $752 forward @7 unknown #
plane-surface $-1 -1 $-1 60.00000000000000711 20 12.5 0 0 1 0 -10 0 forward_v I I I I #
straight-curve $-1 -1 $-1 0 0 0 0 0 10 F 0 F 5 #
coedge $-1 -1 $-1 $590 $699 $680 $753 forward $676 $-1 #
loop $-1 -1 $-1 $-1 $625 $682 #
vertex $-1 -1 $-1 $591 $754 #
straight-curve $-1 -1 $-1 5.000000074505805969 15 50 0 0 10 I I #
point $-1 -1 $-1 5.000000074505805969 15 45.50000000000000711 #
coedge $-1 -1 $-1 $598 $594 $675 $753 reversed $599 $-1 #
straight-curve $-1 -1 $-1 5.000000074505805969 25 45.00000067055225372 0 -10 0 I I #
face $-1 -1 $-1 $732 $676 $5 $-1 $755 forward single #
plane-surface $-1 -1 $-1 0 25 45.00000067055225372 -0 -0 -1 10 0 0 forward_v I I I I #
edge $-1 -1 $-1 $600 -0.625 $756 0.375 $609 $757 forward @7 unknown #
point $-1 -1 $-1 0 25 45.00000067055225372 #
plane-surface $-1 -1 $-1 2.500000037252902985 15 2.500000037252902985 0 -1 0 0 0 -10 forward_v I I I I #
point $-1 -1 $-1 0 0 0 #
coedge $-1 -1 $-1 $630 $615 $612 $689 forward $631 $-1 #
edge $-1 -1 $-1 $617 0 $690 0.5000000074505805969 $612 $758 forward @7 unknown #
vertex $-1 -1 $-1 $634 $759 #
straight-curve $-1 -1 $-1 0 18.75 5.000000074505805969 0 10 0 I I #
straight-curve $-1 -1 $-1 5.000000074505805969 15 0 0 0 10 I I #
point $-1 -1 $-1 5.000000074505805969 15 5.000000074505805969 #
ellipse-curve $-1 -1 $-1 5.000000074505805969 10.5 4.5 1 0 0 0 3.181980515339462912 -3.181980515339465576 1 I I #
straight-curve $-1 -1 $-1 0 25 0 0 -10 0 F 0 F 2.5 #
coedge $-1 -1 $-1 $718 $624 $713 $760 forward $542 $-1 #
coedge $-1 -1 $-1 $671 $761 $624 $698 reversed $750 $-1 #
edge $-1 -1 $-1 $746 0 $762 2.699999999999999734 $697 $763 forward @7 unknown #
coedge $-1 -1 $-1 $675 $625 $627 $701 reversed $676 $-1 #
straight-curve $-1 -1 $-1 15.50000001862645505 15 45.50000000000000711 10 0 0 F -2.945001001862645573 F 4.945000998137356163 #
edge $-1 -1 $-1 $756 0.8750000502914190292 $628 0.9249999832361943675 $627 $764 forward @7 unknown #
point $-1 -1 $-1 0 15 45.50000000000000711 #
point $-1 -1 $-1 5.000000074505805969 15 4.5 #
straight-curve $-1 -1 $-1 0 15 13.75000001862645149 0 0 10 I I #
coedge $-1 -1 $-1 $765 $637 $766 $767 forward $190 $-1 #
coedge $-1 -1 $-1 $768 $769 $637 $707 reversed $770 $-1 #
edge $-1 -1 $-1 $711 -1.724999999999999867 $771 0.5749999999999999556 $637 $772 forward @7 unknown #
coedge $-1 -1 $-1 $773 $638 $641 $715 forward $710 $-1 #
coedge $-1 -1 $-1 $638 $773 $768 $774 reversed $710 $-1 #
loop $-1 -1 $-1 $-1 $638 $775 #
vertex $-1 -1 $-1 $639 $776 #
straight-curve $-1 -1 $-1 60.00000000000000711 24 34 0 0 10 I I #
coedge $-1 -1 $-1 $777 $640 $696 $760 reversed $642 $-1 #
coedge $-1 -1 $-1 $641 $778 $779 $780 reversed $642 $-1 #
edge $-1 -1 $-1 $643 0 $781 0.2999999999999998224 $708 $782 forward @7 unknown #
face $-1 -1 $-1 $783 $642 $5 $-1 $784 forward single #
point $-1 -1 $-1 60.00000000000000711 24 39.5 #
coedge $-1 -1 $-1 $666 $696 $645 $719 forward $542 $-1 #
edge $-1 -1 $-1 $720 0 $668 2.699999999999999734 $645 $785 forward @7 unknown #
vertex $-1 -1 $-1 $719 $786 #
straight-curve $-1 -1 $-1 60.00000000000000711 20 39.5 10 0 0 I I #
plane-surface $-1 -1 $-1 60.00000000000000711 20 39.5 0 -1 0 0 0 -10 forward_v I I I I #
coedge $-1 -1 $-1 $649 $765 $749 $787 reversed $190 $-1 #
edge $-1 -1 $-1 $751 0.1750000000000000444 $728 0.5750000000000000666 $649 $483 forward @7 unknown #
coedge $-1 -1 $-1 $788 $650 $661 $740 forward $727 $-1 #
coedge $-1 -1 $-1 $650 $788 $652 $731 reversed $727 $-1 #
loop $-1 -1 $-1 $-1 $650 $738 #
vertex $-1 -1 $-1 $724 $789 #
straight-curve $-1 -1 $-1 60.00000000000000711 1.000000000000000888 17 0 0 -10 I I #
coedge $-1 -1 $-1 $653 $652 $790 $791 reversed $654 $-1 #
edge $-1 -1 $-1 $655 0 $792 0.2999999999999998224 $726 $793 forward @7 unknown #
face $-1 -1 $-1 $659 $654 $5 $-1 $794 forward single #
point $-1 -1 $-1 60.00000000000000711 1 9 #
coedge $-1 -1 $-1 $790 $662 $657 $735 forward $742 $-1 #
edge $-1 -1 $-1 $664 -0.3499999999999999778 $736 -0 $657 $795 forward @7 unknown #
vertex $-1 -1 $-1 $791 $796 #
straight-curve $-1 -1 $-1 60.00000000000000711 24 9 -10 0 0 I I #
face $-1 -1 $-1 $797 $727 $5 $-1 $798 forward single #
plane-surface $-1 -1 $-1 60.00000000000000711 24 12.5 0 1 0 -0 -0 -10 forward_v I I I I #
edge $-1 -1 $-1 $728 0 $743 0.2999999999999998224 $725 $799 forward @7 unknown #
coedge $-1 -1 $-1 $662 $790 $788 $800 forward $742 $-1 #
loop $-1 -1 $-1 $-1 $741 $797 #
vertex $-1 -1 $-1 $740 $801 #
straight-curve $-1 -1 $-1 57.00000000000001421 24 12.5 0 10 0 I I #
point $-1 -1 $-1 57.00000000000001421 24 12.5 #
vertex $-1 -1 $-1 $672 $802 #
straight-curve $-1 -1 $-1 63.00000000000000711 20 12.5 0 -10 0 I I #
point $-1 -1 $-1 63.00000000000000711 20 12.5 #
coedge $-1 -1 $-1 $761 $671 $723 $787 forward $750 $-1 #
loop $-1 -1 $-1 $-1 $749 $783 #
vertex $-1 -1 $-1 $787 $803 #
straight-curve $-1 -1 $-1 60.00000000000000711 5 12.5 10 0 0 I I #
edge $-1 -1 $-1 $756 -0.5000000074505805969 $677 -0 $680 $804 forward @7 unknown #
point $-1 -1 $-1 5.000000074505805969 15 45.00000067055225372 #
plane-surface $-1 -1 $-1 2.500000037252902985 15 47.50000033527612686 0 -1 0 0 0 -10 forward_v I I I I #
vertex $-1 -1 $-1 $684 $805 #
straight-curve $-1 -1 $-1 0 18.75 45.00000067055225372 0 -10 0 I I #
straight-curve $-1 -1 $-1 5.000000074505805969 15 5.000000074505805969 -10 0 0 I I #
point $-1 -1 $-1 0 15 5.000000074505805969 #
edge $-1 -1 $-1 $762 0 $720 1.5 $713 $806 forward @7 unknown #
coedge $-1 -1 $-1 $697 $749 $777 $807 forward $750 $-1 #
vertex $-1 -1 $-1 $760 $808 #
straight-curve $-1 -1 $-1 63.00000000000000711 5 12.5 0 0 10 I I #
straight-curve $-1 -1 $-1 0 15 36.25000016763806343 0 0 10 I I #
coedge $-1 -1 $-1 $723 $705 $809 $810 forward $190 $-1 #
coedge $-1 -1 $-1 $811 $812 $705 $767 reversed $813 $-1 #
edge $-1 -1 $-1 $771 -1.074999999999999734 $814 -0.7250000000000000888 $705 $815 forward @7 unknown #
coedge $-1 -1 $-1 $816 $706 $709 $774 forward $770 $-1 #
coedge $-1 -1 $-1 $706 $816 $811 $817 reversed $770 $-1 #
loop $-1 -1 $-1 $-1 $706 $818 #
vertex $-1 -1 $-1 $707 $819 #
straight-curve $-1 -1 $-1 60.00000000000000711 6.75 43 0 -10 0 I I #
coedge $-1 -1 $-1 $709 $708 $820 $821 reversed $710 $-1 #
edge $-1 -1 $-1 $711 0 $822 0.2999999999999998224 $768 $823 forward @7 unknown #
face $-1 -1 $-1 $818 $710 $5 $-1 $824 forward single #
point $-1 -1 $-1 60.00000000000000711 24 43 #
coedge $-1 -1 $-1 $809 $713 $761 $807 reversed $642 $-1 #
coedge $-1 -1 $-1 $714 $809 $812 $825 forward $642 $-1 #
coedge $-1 -1 $-1 $826 $820 $714 $780 forward $827 $-1 #
edge $-1 -1 $-1 $781 -2.299999999999999822 $828 -0 $714 $829 forward @7 unknown #
vertex $-1 -1 $-1 $715 $830 #
straight-curve $-1 -1 $-1 60.00000000000000711 24 39.5 -10 0 0 I I #
face $-1 -1 $-1 $337 $750 $5 $-1 $831 forward single #
plane-surface $-1 -1 $-1 60.00000000000000711 5 39.5 0 0 -1 0 10 0 forward_v I I I I #
straight-curve $-1 -1 $-1 63.00000000000000711 20 39.5 0 0 -10 I I #
point $-1 -1 $-1 63.00000000000000711 20 39.5 #
edge $-1 -1 $-1 $751 0 $832 2.699999999999999734 $749 $833 forward @7 unknown #
coedge $-1 -1 $-1 $726 $725 $741 $800 reversed $727 $-1 #
point $-1 -1 $-1 60.00000000000000711 1 12.5 #
coedge $-1 -1 $-1 $741 $734 $730 $791 forward $742 $-1 #
edge $-1 -1 $-1 $736 -2.299999999999999822 $792 -0 $730 $834 forward @7 unknown #
vertex $-1 -1 $-1 $731 $835 #
straight-curve $-1 -1 $-1 60.00000000000000711 1 9 -10 0 0 I I #
plane-surface $-1 -1 $-1 60.00000000000000711 24 9 0 0 -1 -0 -10 -0 forward_v I I I I #
straight-curve $-1 -1 $-1 57.00000000000001421 24 9 -0 -0 -10 I I #
point $-1 -1 $-1 57.00000000000001421 24 9 #
face $-1 -1 $-1 $775 $742 $5 $-1 $836 forward single #
plane-surface $-1 -1 $-1 60.00000000000000711 1 9 -0 -1 -0 0 0 10 forward_v I I I I #
straight-curve $-1 -1 $-1 60.00000000000000711 1 12.5 -10 0 0 I I #
edge $-1 -1 $-1 $792 -0.3499999999999999778 $743 -0 $788 $837 forward @7 unknown #
point $-1 -1 $-1 57.00000000000001421 1 12.5 #
point $-1 -1 $-1 63.00000000000000711 5 12.5 #
point $-1 -1 $-1 60.00000000000000711 5 12.5 #
straight-curve $-1 -1 $-1 5.000000074505805969 15 45.00000067055225372 10 0 0 I I #
point $-1 -1 $-1 0 15 45.00000067055225372 #
straight-curve $-1 -1 $-1 63.00000000000000711 5 39.5 0 10 0 I I #
edge $-1 -1 $-1 $832 0 $762 0.2999999999999998224 $761 $838 forward @7 unknown #
point $-1 -1 $-1 63.00000000000000711 5 39.5 #
coedge $-1 -1 $-1 $778 $777 $765 $810 reversed $642 $-1 #
edge $-1 -1 $-1 $814 -1.724999999999999867 $832 -1.324999999999999956 $765 $644 forward @7 unknown #
coedge $-1 -1 $-1 $839 $766 $769 $817 forward $813 $-1 #
coedge $-1 -1 $-1 $766 $839 $778 $825 reversed $813 $-1 #
loop $-1 -1 $-1 $-1 $766 $840 #
vertex $-1 -1 $-1 $767 $841 #
straight-curve $-1 -1 $-1 60.00000000000000711 1.000000000000000888 32.25 0 0 -10 I I #
coedge $-1 -1 $-1 $769 $768 $842 $843 reversed $770 $-1 #
edge $-1 -1 $-1 $771 0 $844 0.2999999999999998224 $811 $845 forward @7 unknown #
face $-1 -1 $-1 $840 $770 $5 $-1 $846 forward single #
point $-1 -1 $-1 60.00000000000000711 1.000000000000000444 43 #
coedge $-1 -1 $-1 $779 $842 $773 $821 forward $827 $-1 #
edge $-1 -1 $-1 $822 -0.3499999999999996447 $781 -0 $773 $847 forward @7 unknown #
vertex $-1 -1 $-1 $821 $848 #
straight-curve $-1 -1 $-1 60.00000000000000711 24 43 -10 0 0 I I #
plane-surface $-1 -1 $-1 60.00000000000000711 24 43 0 1 0 -0 -0 -10 forward_v I I I I #
edge $-1 -1 $-1 $814 0 $828 0.2999999999999998224 $812 $849 forward @7 unknown #
coedge $-1 -1 $-1 $842 $779 $839 $850 forward $827 $-1 #
loop $-1 -1 $-1 $-1 $826 $851 #
vertex $-1 -1 $-1 $850 $852 #
straight-curve $-1 -1 $-1 57.00000000000001421 1.000000000000000444 39.5 -0 -10 -0 I I #
point $-1 -1 $-1 57.00000000000001421 24 39.5 #
plane-surface $-1 -1 $-1 60.00000000000000711 5 12.5 0 1 0 0 0 10 forward_v I I I I #
vertex $-1 -1 $-1 $810 $853 #
straight-curve $-1 -1 $-1 60.00000000000000711 5 12.5 0 0 10 F 0 F 2.699999999999999734 #
straight-curve $-1 -1 $-1 57.00000000000001421 1 9 -0 -10 -0 I I #
point $-1 -1 $-1 57.00000000000001421 1 9 #
plane-surface $-1 -1 $-1 57.00000000000001421 12.5 10.75 -1 0 0 0 0 10 forward_v I I I I #
straight-curve $-1 -1 $-1 57.00000000000001421 1 12.5 0 0 10 I I #
straight-curve $-1 -1 $-1 60.00000000000000711 5 39.5 10 0 0 I I #
coedge $-1 -1 $-1 $812 $811 $826 $850 reversed $813 $-1 #
face $-1 -1 $-1 $851 $813 $5 $-1 $854 forward single #
point $-1 -1 $-1 60.00000000000000711 1.000000000000000444 39.5 #
coedge $-1 -1 $-1 $820 $826 $816 $843 forward $827 $-1 #
edge $-1 -1 $-1 $844 -2.299999999999999822 $822 -0 $816 $855 forward @7 unknown #
vertex $-1 -1 $-1 $843 $856 #
straight-curve $-1 -1 $-1 60.00000000000000711 1.000000000000000444 43 -10 0 0 I I #
plane-surface $-1 -1 $-1 60.00000000000000711 1.000000000000000888 43 0 0 1 0 10 0 forward_v I I I I #
straight-curve $-1 -1 $-1 57.00000000000001421 24 39.5 -0 -0 -10 I I #
point $-1 -1 $-1 57.00000000000001421 24 43 #
straight-curve $-1 -1 $-1 60.00000000000000711 1.000000000000000444 39.5 -10 0 0 I I #
edge $-1 -1 $-1 $828 -0.3499999999999996447 $844 -0 $839 $857 forward @7 unknown #
face $-1 -1 $-1 $580 $827 $5 $-1 $858 forward single #
point $-1 -1 $-1 57.00000000000001421 1.000000000000000444 39.5 #
point $-1 -1 $-1 60.00000000000000711 5 39.5 #
plane-surface $-1 -1 $-1 60.00000000000000711 1.000000000000000444 39.5 -0 -1 -0 0 0 10 forward_v I I I I #
straight-curve $-1 -1 $-1 57.00000000000001421 24 43 0 10 0 I I #
point $-1 -1 $-1 57.00000000000001421 1.000000000000000444 43 #
straight-curve $-1 -1 $-1 57.00000000000001421 1.000000000000000444 43 0 0 10 I I #
plane-surface $-1 -1 $-1 57.00000000000001421 12.5 41.25 -1 0 0 0 0 10 forward_v I I I I #
End-of-ACIS-data 